<?xml version="1.0" encoding="UTF-8"?>
<svg id="Layer_1" xmlns="http://www.w3.org/2000/svg" version="1.1" viewBox="0 0 255.1166 72.1943">
  <!-- Generator: Adobe Illustrator 30.1.0, SVG Export Plug-In . SVG Version: 2.1.1 Build 136)  -->
  <path d="M13.9157,43.6614C7.4221,45.9923-.1929,49.9859.0037,57.9869c.0828,3.3672,1.9297,6.3482,5.0501,7.701,3.2656,1.4158,6.978,1.0108,10.3699.3244,15.1653-3.0693,28.6084-11.2964,40.6324-20.7371,6.9322-5.4429,13.4746-11.3576,19.9778-17.2996,1.0869-.9931-.0447-2.9853-1.4594-2.5071-4.0606,1.3725-4.0549,6.9875-1.1423,9.5547,4.2713,3.7648,11.0497.7669,15.4822-1.0789,10.4331-4.3448,19.7256-10.8721,28.3145-18.1461,4.9934-4.2289,9.7576-8.7185,14.4653-13.2605,1.3949-1.3458-.7093-3.433-2.1213-2.1213-13.2065,12.2677-25.9633,25.0176-38.225,38.23-3.0653,3.303-6.1,6.6344-9.1034,9.9938-2.7802,3.1097-5.8782,6.155-8.1922,9.6388-1.8162,2.7343-3.3875,6.4183-1.9568,9.6497,1.5696,3.5451,5.5368,4.0987,8.9778,4.2122,10.1757.3356,20.3978-.9147,30.2142-3.6012,1.8599-.509,1.0703-3.404-.7975-2.8928-8.1894,2.2412-16.6193,3.4503-25.1116,3.5412-2.0213.0216-4.0671.0331-6.0829-.14-1.4926-.1282-3.19-.4801-4.132-1.7564-1.882-2.5499.5972-6.3789,2.145-8.445,2.4117-3.2194,5.3212-6.1531,8.0067-9.1451,2.7987-3.1182,5.6244-6.2121,8.4767-9.2814,5.7045-6.1385,11.5153-12.1784,17.4288-18.1159,6.6946-6.7219,13.5227-13.3099,20.4734-19.7666l-2.1213-2.1213c-7.1617,6.9097-14.4644,13.7394-22.5033,19.6305-3.9718,2.9106-8.1184,5.5928-12.4671,7.9071-4.2086,2.2397-8.7678,4.4531-13.4414,5.5121-2.0253.4589-5.0852.6961-6.3093-1.403-.5979-1.0252-.94-3.2081.5203-3.7017l-1.4594-2.5071c-10.4093,9.5109-20.9661,19.0518-33.0242,26.458-5.8448,3.5899-12.0255,6.6547-18.5586,8.7756-3.1997,1.0388-6.5491,2.0005-9.8977,2.4062-2.8337.3433-6.4437.3005-8.3478-2.2022-1.956-2.571-1.0818-6.4745.7784-8.844,2.4129-3.0735,6.2857-4.614,9.8504-5.8936,1.8037-.6475,1.0259-3.5474-.7975-2.8928h0Z"/>
  <path d="M135.1712,41.1874c-5.0044-2.6338-10.6125-.837-15.5358,1.0701-4.7073,1.8235-9.8725,4.501-10.9422,9.942-.9321,4.741,2.2037,8.5782,6.7987,9.4155,4.6351.8446,9.428-.6576,13.5909-2.6197,5.2383-2.469,9.7172-6.3147,13.0918-11.0034.8679-1.2058-.8487-2.8932-2.0523-2.0523-5.5751,3.8952-10.2204,8.9328-13.5926,14.8443-.4282.7507-.0928,2.0627.8964,2.2035,7.7086,1.0972,15.3284-.5373,22.5836-3.1235,6.0993-2.1741,13.9908-5.5096,13.9041-13.2055-.0086-.7653-.6815-1.5618-1.5-1.5-1.8558.1401-3.0516,1.6298-3.0208,3.4757.0348,2.08,1.5669,3.5372,3.5622,3.8696,2.2594.3764,4.6513-.471,6.7235-1.2926,2.4078-.9547,4.6602-2.1934,6.7421-3.7348l-1.8177-2.3559c-2.2905,2.7008-4.5304,5.4438-6.7117,8.2336-1.0206,1.3053-2.0304,2.6192-3.0278,3.9424-.8908,1.1818-1.8193,2.3206-2.402,3.6924-.9778,2.3019-.6771,5.2177,2.1066,5.985,1.5198.4189,3.3056.1091,4.8445-.0441,1.7244-.1717,3.4391-.4322,5.1394-.7654,1.8928-.3709,1.0915-3.263-.7975-2.8928-2.5188.4936-5.2299.9804-7.8086.8676-2.3995-.105-.0281-3.2734.6393-4.1692,3.2418-4.351,6.6298-8.5902,10.1392-12.7281,1.0156-1.1974-.351-3.4418-1.8177-2.3559-2.451,1.8146-5.144,3.2469-8.0614,4.1506-1.1117.3444-2.6638.8951-3.8152.4103-.4023-.1694-.6215-.3785-.637-.8128-.0119-.3332.2386-.4922.0208-.4757l-1.5-1.5c.0742,6.5837-8.0172,9.0763-13.036,10.7768-6.2855,2.1297-12.999,3.6066-19.6542,2.6593l.8964,2.2035c3.1109-5.4536,7.3657-10.1695,12.5163-13.7681l-2.0523-2.0523c-2.4583,3.4157-5.6273,6.2926-9.2388,8.4482-3.3076,1.9741-7.2345,3.6376-11.1195,3.8975-3.1007.2074-7.3994-.6068-7.7088-4.4238-.3691-4.5541,4.1323-7.2821,7.7476-8.7854,4.266-1.7739,9.9198-4.1903,14.3923-1.8364,1.7071.8984,3.2251-1.6899,1.5142-2.5904h0Z"/>
  <path d="M198.1792,47.8177c-4.7931,4.4491-9.3173,9.1791-13.5489,14.1652-.5239.6173-.6057,1.5156,0,2.1213.5373.5373,1.5948.6205,2.1213,0,4.2316-4.9861,8.7558-9.7161,13.5489-14.1652,1.4181-1.3163-.7071-3.434-2.1213-2.1213h0Z"/>
  <path d="M215.1186,34.9489c1.9304,0,1.9336-3,0-3-1.9304,0-1.9336,3,0,3h0Z"/>
  <path d="M212.7003,62.114c4.0357.4675,8.1036.3105,12.0937-.4593,3.1095-.6,6.1933-1.6294,8.6569-3.6865,2.2998-1.9203,3.5742-4.8822,2.8488-7.8601-.767-3.1489-3.4513-5.4988-6.4673-6.4354-5.4901-1.7049-14.692.2826-16.4091,6.615-.9065,3.3429.8185,6.7782,3.4112,8.8527,2.8585,2.2873,6.6085,3.3897,10.1149,4.2309,8.7371,2.0963,17.802,1.8951,26.7192,1.6621,1.9269-.0503,1.9344-3.0505,0-3-6.5955.1723-13.2326.3438-19.7971-.4557-3.1929-.3888-6.3647-1.0416-9.4311-2.0177-2.6641-.848-5.6386-1.9639-7.2618-4.391-1.4915-2.2302-1.2403-4.8197.8158-6.5692,2.0249-1.7229,4.9336-2.4118,7.5335-2.4769,2.7297-.0684,5.6509.7353,7.1864,3.1708,1.3274,2.1056.8553,4.4399-.893,6.1153-2.0872,2.0002-5.0637,2.8217-7.8249,3.3527-3.7233.716-7.5349.7879-11.2962.3522-1.9143-.2217-1.8984,2.7801,0,3h0Z"/>
</svg>