<?xml version="1.0" encoding="UTF-8"?>
<svg id="Layer_2" xmlns="http://www.w3.org/2000/svg" version="1.1" viewBox="0 0 409.4437 409.1783">
  <!-- Generator: Adobe Illustrator 29.8.2, SVG Export Plug-In . SVG Version: 2.1.1 Build 3)  -->
  <path d="M1.6068,349.9802c49.6133,0,60.9927-20.2471,68.2754-153.9751l3.6416-55.0923c3.186-50.854-8.1934-75.8101-54.6206-75.8101v-3.2959h104.689l96.9512,209.0664,83.751-209.0664h90.124v3.2959c-37.3242,0-42.3311,21.189-40.5098,54.1504l8.1924,177.519c1.8213,37.1982,9.5586,53.208,44.1514,53.208v2.8252h-140.6475v-2.8252c34.5928,0,41.4209-18.3643,39.6006-50.8545l-10.0146-202.4746-100.1367,247.6787h-2.731L79.8958,107.4812l-5.917,88.5239c-7.7378,133.2563-2.731,153.9751,45.9722,153.9751v2.8252H1.6068v-2.8252Z" fill="#1c1c1c"/>
</svg>