<?xml version="1.0" encoding="UTF-8"?>
<svg id="Layer_1" xmlns="http://www.w3.org/2000/svg" version="1.1" viewBox="0 0 356.5303 93.4502">
  <!-- Generator: Adobe Illustrator 30.1.0, SVG Export Plug-In . SVG Version: 2.1.1 Build 136)  -->
  <path d="M165.1479,43.0542l-.8403-12.9512.4902-.0698c1.8901,5.1802,3.2202,14.4214,14.3516,14.4214,7.7012,0,11.0615-4.3403,11.0615-9.2412,0-13.3711-25.2729-8.3306-25.2729-23.7324,0-6.0205,3.8501-11.481,14.0015-11.481,5.1104,0,8.4707,1.3999,12.8809.4199l.9805,12.8115-.4199.0698c-1.4697-3.8506-3.9209-12.8115-13.5117-12.8115-6.5103,0-9.731,4.0605-9.731,8.6812,0,12.8115,25.3433,7.9106,25.3433,23.8726,0,6.3706-3.9912,11.9009-15.8223,11.9009-5.3203,0-10.0107-1.1201-13.5112-1.8901Z" fill="#fff"/>
  <path d="M195.3867,43.6143c6.5811,0,7.001-1.8198,7.001-6.0205V7.3506c0-4.2002-.4199-6.0205-7.001-6.0205v-.4902h19.3223v.4902c-6.5811,0-7.001,1.8203-7.001,6.0205v14.3516h24.0127V7.3506c0-4.2002-.4199-6.0205-7.001-6.0205v-.4902h19.3223v.4902c-6.5811,0-7.001,1.8203-7.001,6.0205v30.2432c0,4.2007.4199,6.0205,7.001,6.0205v.4902h-19.3223v-.4902c6.5811,0,7.001-1.8198,7.001-6.0205v-15.2617h-24.0127v15.2617c0,4.2007.4199,6.0205,7.001,6.0205v.4902h-19.3223v-.4902Z" fill="#fff"/>
  <path d="M240.5869,22.4722c0-12.3213,9.0312-22.4722,22.2627-22.4722s22.2617,10.1509,22.2617,22.4722-9.1006,22.4722-22.2617,22.4722-22.2627-10.1509-22.2627-22.4722ZM279.1611,22.4722c0-11.271-4.1309-21.772-16.3115-21.772s-16.3125,10.501-16.3125,21.772,4.2705,21.7725,16.3125,21.7725,16.3115-10.5015,16.3115-21.7725Z" fill="#fff"/>
  <path d="M296.4082,43.6143c6.5811,0,7.001-1.8198,7.001-6.0205V1.3999h-.4199c-12.7422,0-14.0723,6.5806-15.8926,14.0015l-.4893-.0698,1.3301-14.4917h36.2637l1.3301,14.4917-.4902.0698c-1.8203-7.4209-3.1504-14.0015-15.8916-14.0015h-.4199v36.1938c0,4.2007.4199,6.0205,7.001,6.0205v.4902h-19.3223v-.4902Z" fill="#fff"/>
  <path d="M327.1963,43.0542l-.8398-12.9512.4902-.0698c1.8906,5.1802,3.2207,14.4214,14.3516,14.4214,7.7012,0,11.0615-4.3403,11.0615-9.2412,0-13.3711-25.2734-8.3306-25.2734-23.7324,0-6.0205,3.8506-11.481,14.002-11.481,5.1104,0,8.4707,1.3999,12.8809.4199l.9805,12.8115-.4199.0698c-1.4697-3.8506-3.9209-12.8115-13.5117-12.8115-6.5107,0-9.7305,4.0605-9.7305,8.6812,0,12.8115,25.3428,7.9106,25.3428,23.8726,0,6.3706-3.9912,11.9009-15.8223,11.9009-5.3203,0-10.0107-1.1201-13.5117-1.8901Z" fill="#fff"/>
  <g>
    <path d="M2.3325,92.9229c6.5806,0,7.001-1.8198,7.001-6.0205v-30.2432c0-4.2002-.4204-6.0205-7.001-6.0205v-.4902h19.4619c12.3916,0,16.312,4.6904,16.312,10.7812,0,5.7407-3.5005,9.1709-12.4614,10.0112v.1396c10.0811.7002,13.8613,4.5508,13.8613,10.9214,0,6.5806-3.9204,11.4111-16.3818,11.4111H2.3325v-.4902ZM21.7246,70.8008c7.9106,0,10.8511-4.3403,10.8511-9.731,0-5.2505-2.8003-10.3613-10.8511-10.3613h-7.0708v20.0923h7.0708ZM22.9849,92.853c7.2808,0,10.9912-4.9707,10.9912-11.061,0-6.3008-3.9907-10.4312-11.8315-10.4312h-7.4907v21.4922h8.3311Z" fill="#fff"/>
    <path d="M55.1133,92.9229c7.2808,0,7.0005-3.9204,7.0005-8.1206v-9.3809l-8.9609-15.1919c-2.8003-4.6904-6.0205-9.5908-11.2012-9.5908v-.4902h19.6021v.4902c-5.7402,0-6.7207,2.5903-3.4302,8.1909l8.6108,14.6313h.21l2.3105-3.8506c5.3901-9.0308,7.7007-13.021,7.7007-15.5415,0-1.6099-.98-3.4302-5.8809-3.4302v-.4902h18.4819v.4902c-4.8306,0-7.7007,1.6802-9.8706,4.2002-1.5405,1.6802-3.7104,5.1108-9.9414,15.1919l-2.3101,3.7104v11.061c0,4.2002-.2803,8.1206,7.0005,8.1206v.4902h-19.3218v-.4902Z" fill="#fff"/>
  </g>
  <g>
    <path d="M318.0977,80.2891c-1.8203,7.4204-3.8506,12.6011-17.9922,12.6011h-6.0205v-20.7222h1.1201c9.9414,0,12.9512,1.0503,14.0713,8.6807h.4199v-17.9219h-.4199c-1.1201,7.6309-4.1299,8.6812-14.0713,8.6812h-1.1201v-20.8623h5.1104c13.5117,0,16.1719,3.5703,17.9922,11.7612l.4199-.0698-.8398-12.2515h-35.0039v.4902c6.5811,0,7.001,1.8203,7.001,6.0205v30.2432c0,4.2007-.4199,6.0205-7.001,6.0205-.2932-.0016-4.0811-.0102-4.4775,0-6.5811,0-7.001-1.8198-7.001-6.0205v-30.2432c0-4.2002.4199-6.0205,7.001-6.0205v-.4902h-19.3223v.4902c6.5811,0,7.001,1.8203,7.001,6.0205v30.2432c0,4.2007-.4199,6.0205-7.001,6.0205-.2932-.0016-2.5401.0601-2.9365.0703-4.0596,0-5.46-1.4702-7.0703-6.0908-2.9404-8.541-1.8906-14.1416-14.9111-14.5615v-.21c7.2803-.2803,16.3809-2.4502,16.3809-10.9209,0-7.561-7.3506-11.0615-18.7617-11.0615h-18.5518v.4902c6.5811,0,7.001,1.8203,7.001,6.0205v30.2432c0,4.2006-.4199,6.0204-7.0006,6.0205-.2932-.0016-.7183-.0102-1.1144,0-.0043.1622.0043.3528,0,.4902h20.4363v-.4902c-6.5811,0-7.001-1.8198-7.001-6.0205v-14.4912h6.0908c9.0303,0,9.1709,5.5303,11.7607,14.4214,1.1904,4.0601,2.0303,5.5303,2.4502,6.5806h72.5215l1.3301-13.0913-.4902-.0698ZM230.4551,71.8877h-6.0205v-21.1421h6.0205c8.6807,0,13.3711,3.7808,13.3711,10.3613s-4.6904,10.7808-13.3711,10.7808Z" fill="#fff"/>
    <path d="M201.127,83.3691l-14.0713-33.3936h-.4199l-12.1812,29.543c-2.1611,5.1584-3.98,13.3644-12.3574,13.4349-5.5248-.0673-6.7516-1.8336-6.9575-6.3641l-1.2603-28.9131c-.21-4.1304.2803-7.0005,7.001-7.0005v-.4902h-12.0415l-14.0713,34.7939-16.5918-34.7939h-12.6714v.4902c6.6509,0,8.8911,3.0801,8.541,10.2212l-.1401,2.9399c-1.2603,27.1631-2.3101,29.123-10.4312,29.123v.4902h17.502v-.4902c-7.771,0-7.7007-2.1001-6.4409-29.123l.3501-7.9805,17.4321,35.6338h.4897l15.4019-38.084,1.6099,33.1831c.2104,3.9204-.6299,6.3706-6.7207,6.3706v.4902h35.5566v-.4902c-8.9609,0-5.7402-7.4907-3.5703-12.811l.77-1.9604h17.502l2.5898,6.1606c2.7305,6.5107.0703,8.6108-4.6899,8.6108v.4902h19.7417v-.4902c-5.3203,0-7.7002-4.4805-9.8711-9.5908ZM176.1348,77.4883l8.4009-20.5117,8.541,20.5117h-16.9419Z" fill="#fff"/>
  </g>
  <path d="M139.7808.8398h-20.3721v.4902c6.5806,0,7.0005,1.8203,7.0005,6.0205v30.2432c0,3.8051-.3611,5.6511-5.3167,5.9661-4.6417-.5196-6.8586-4.7515-8.8903-9.5364L98.1304.6299h-.4199l-12.1812,29.543c-2.1238,5.0695-3.929,13.0672-11.9421,13.4091-1.7097-.0235-3.6635-.0375-5.8962-.0375h-6.0205v-20.7222h1.1201c9.9409,0,12.9512,1.0503,14.0713,8.6807h.4204V13.5811h-.4204c-1.1201,7.6309-4.1304,8.6812-14.0713,8.6812h-1.1201V1.3999h5.1104c13.5117,0,16.1719,3.5703,17.9922,11.7612l.4199-.0698-.8403-12.2515h-35.0034v.4902c6.5806,0,7.0005,1.8203,7.0005,6.0205v30.2432c0,4.2007-.4199,6.0205-7.0005,6.0205-.2932-.0016-.2974-.0102-.6938,0-6.5811,0-7.001-1.8198-7.001-6.0205V7.3506c0-4.2002.4199-6.0205,7.001-6.0205v-.4902h-19.3223v.4902c6.5806,0,7.001,1.8203,7.001,6.0205v14.3516H12.3213V7.3506c0-4.2002.4199-6.0205,7.001-6.0205v-.4902H0v.4902c6.5806,0,7.001,1.8203,7.001,6.0205v30.2432c0,4.2007-.4204,6.0205-7.001,6.0205v.4902h19.3223v-.4902c-6.5811,0-7.001-1.8198-7.001-6.0205v-15.2617h24.0127v15.2617c0,4.2007-.4204,6.0205-7.001,6.0205v.4902h60.3965v-.4902c-8.9609,0-5.7402-7.4907-3.5703-12.811l.77-1.9604h17.502l2.5903,6.1606c2.7305,6.5107.0698,8.6108-4.6904,8.6108v.4902h37.4497c14.6313,0,24.0825-8.6807,24.0825-21.6323,0-13.0215-9.521-21.6323-24.0825-21.6323ZM87.2095,28.1426l8.4009-20.5117,8.541,20.5117h-16.9419ZM139.7808,43.5444h-8.0508V1.3999h8.0508c12.4614,0,18.1318,8.9609,18.1318,21.0723,0,12.0415-5.6704,21.0723-18.1318,21.0723Z" fill="#fff"/>
</svg>