<?xml version="1.0" encoding="UTF-8"?>
<svg id="Layer_2" xmlns="http://www.w3.org/2000/svg" version="1.1" viewBox="0 0 409.4437 309.9768">
  <!-- Generator: Adobe Illustrator 29.7.1, SVG Export Plug-In . SVG Version: 2.1.1 Build 8)  -->
  <path d="M67.6374,32.7011l-16.125,236.0644c-2.3528,35.4473,8.5102,38.9335,48.8261,38.9335v2.2778H0v-2.2778c32.2499-.4511,40.2857-9.8246,42.5511-43.4107L59.1272,45.2442C60.9181,21.5045,50.617,4.2574,21.9488,2.4665V0h76.1476l102.5805,261.595L293.4006,0h82.8635v1.9847c-31.7988,0-38.0704,19.0687-36.2795,40.5732l18.8147,223.5212c1.895,43.8977,25.5648,41.0413,50.6443,41.9368v1.9609h-137.0964v-2.5947c30.459-2.2352,43.3441,2.5947,43.0022-39.9631L295.7313,8.6188l-106.3656,301.2976-2.9031.1207L67.6374,32.7011Z" fill="#fff"/>
</svg>