<?xml version="1.0" encoding="UTF-8"?>
<svg id="Layer_1" xmlns="http://www.w3.org/2000/svg" version="1.1" viewBox="0 0 472.1233 123.7043">
  <!-- Generator: Adobe Illustrator 30.0.0, SVG Export Plug-In . SVG Version: 2.1.1 Build 123)  -->
  <path d="M0,54.8348c7.5696,0,8.3611-2.1126,8.3611-7.9211V9.5937C8.3611,3.7852,7.5696,1.6726,0,1.6726v-.6163h25.5244v.6163c-7.5696,0-8.3611,2.1126-8.3611,7.9211v17.7795h28.5171V9.5937c0-5.8085-.7916-7.9211-8.3611-7.9211v-.6163h25.5252v.6163c-7.5696,0-8.362,2.1126-8.362,7.9211v37.3201c0,5.8085.7925,7.9211,8.362,7.9211v.6163h-25.5252v-.6163c7.5696,0,8.3611-2.1126,8.3611-7.9211v-18.7481h-28.5171v18.7481c0,5.8085.7916,7.9211,8.3611,7.9211v.6163H0v-.6163Z" fill="#fff"/>
  <path d="M66.2721,54.8348c7.5696,0,8.3611-2.1126,8.3611-7.9211V9.5937c0-5.8085-.7916-7.9211-8.3611-7.9211v-.6163h45.1526l1.0563,16.1954-.4401.0877c-2.2888-10.2099-6.4256-15.5792-22.1809-15.5792h-6.4247v26.2292h1.7602c11.6186,0,15.6668-2.6404,17.0755-11.5301h.5277v23.6765h-.5277c-1.4087-8.8012-5.4569-11.4416-17.0755-11.4416h-1.7602v26.053h7.3934c16.547,0,20.5189-6.3534,22.8954-15.6832l-1.833,9.5009.0911,6.578-45.7101.3081v-.6163Z" fill="#fff"/>
  <path d="M98.472,54.6222c10.2099,0,12.938-10.1292,16.0192-17.4349L129.8942.3958h.6154l18.4843,42.2484c2.728,6.1617,5.8093,11.8825,12.1464,11.8825v.6163h-26.8454v-.6163c6.0732,0,8.8021-3.3443,5.5454-10.9138l-3.0813-7.218h-20.8599l-.8801,2.1126c-2.8166,7.3057-5.3693,16.0192,5.5454,16.0192v.6163h-22.0924v-.5207ZM136.3189,35.5147l-10.1214-23.8527-9.9461,23.8527h20.0674Z" fill="#fff"/>
  <path d="M161.0255,54.5267c7.5696,0,8.3611-2.1126,8.3611-7.9211V9.2855c0-5.8085-.7916-7.9211-8.3611-7.9211v-.6163h26.8454c18.8349,0,30.8936,10.7385,30.8936,27.1969s-11.9702,27.1978-30.8936,27.1978h-26.8454v-.6163ZM187.3424,54.439c15.3153,0,21.74-11.8825,21.74-26.4939s-6.4247-26.493-21.74-26.493h-9.1536v52.9869h9.1536Z" fill="#fff"/>
  <path d="M222.0813,54.1309l-.9678-16.3716.5277-.0877c2.9042,7.6572,5.4569,18.2195,18.5719,18.2195,9.1536,0,13.2903-5.1054,13.2903-11.0024,0-16.3708-31.6861-10.3861-31.6861-30.102,0-8.2735,5.5446-14.7867,18.4834-14.7867,6.6894,0,11.0024,1.7602,16.7232.4401l1.1448,16.6355-.4401.0877c-2.465-6.1608-5.8093-16.547-17.3394-16.547-7.8343,0-11.7072,4.8407-11.7072,10.2976,0,15.5792,31.7746,9.9461,31.7746,30.1906,0,8.8012-6.0732,15.403-20.6837,15.403-6.5132,0-13.0265-1.3202-17.6918-2.3765Z" fill="#fff"/>
  <path d="M260.4542,54.8348c7.5696,0,8.3611-2.1126,8.3611-7.9211V9.5937c0-5.8085-.7916-7.9211-8.3611-7.9211v-.6163h25.5244v.6163c-7.5696,0-8.3611,2.1126-8.3611,7.9211v17.7795h28.5171V9.5937c0-5.8085-.7925-7.9211-8.3611-7.9211v-.6163h25.5252v.6163c-7.5704,0-8.3611,2.1126-8.3611,7.9211v37.3201c0,5.8085.7907,7.9211,8.3611,7.9211v.6163h-25.5252v-.6163c7.5687,0,8.3611-2.1126,8.3611-7.9211v-18.7481h-28.5171v18.7481c0,5.8085.7916,7.9211,8.3611,7.9211v.6163h-25.5244v-.6163Z" fill="#fff"/>
  <path d="M320.036,28.2533c0-15.843,11.8834-28.2533,28.7827-28.2533s28.781,12.4102,28.781,28.2533-11.8816,28.2541-28.781,28.2541c-16.8117,0-28.7827-12.4102-28.7827-28.2541ZM367.9184,28.2533c0-14.0828-4.5777-27.4608-19.0997-27.4608-14.436,0-19.1014,13.4665-19.1014,27.4608,0,14.0828,4.753,27.4617,19.1014,27.4617s19.0997-13.3789,19.0997-27.4617Z" fill="#fff"/>
  <path d="M391.9429,54.8348c7.5704,0,8.8012-2.0241,8.8012-8.0973V1.7602h-.5277c-14.7867,0-17.2517,8.5382-19.8027,18.0433l-.5294-.0877,1.5849-18.6596h47.4406l1.5849,18.6596-.5277.0877c-2.5527-9.5051-5.0177-18.0433-19.8044-18.0433h-.5277v44.9773c0,6.0732,1.2325,8.0973,8.8012,8.0973v.6163h-26.493v-.6163Z" fill="#fff"/>
  <path d="M433.747,54.1309l-.9678-16.3716.5277-.0877c2.9051,7.6572,5.4578,18.2195,18.5719,18.2195,9.1536,0,13.2912-5.1054,13.2912-11.0024,0-16.3708-31.6878-10.3861-31.6878-30.102,0-8.2735,5.5454-14.7867,18.4843-14.7867,6.6886,0,11.0015,1.7602,16.724.4401l1.1431,16.6355-.4401.0877c-2.4633-6.1608-5.8085-16.547-17.3394-16.547-7.8334,0-11.7063,4.8407-11.7063,10.2976,0,15.5792,31.7755,9.9461,31.7755,30.1906,0,8.8012-6.0732,15.403-20.6846,15.403-6.5132,0-13.0265-1.3202-17.6918-2.3765Z" fill="#fff"/>
  <g>
    <path d="M2.7291,122.4719c7.5688,0,8.3613-2.1123,8.3613-7.9209v-37.3174c0-5.8091-.7925-7.9214-8.3613-7.9214v-.6157h25.9639c15.7539,0,21.3867,5.5444,21.3867,13.3779,0,7.3926-4.9287,11.9697-17.5146,12.7617v.1758c13.9941.7041,19.2749,5.6328,19.2749,13.73,0,8.2739-5.4565,14.3462-21.3872,14.3462H2.7291v-.6162ZM27.4605,94.6599c9.6816,0,13.3779-5.3687,13.3779-12.4097,0-6.3369-3.1685-12.8496-12.7617-12.8496h-8.1855v25.2593h7.5693ZM29.3087,122.384c9.0654,0,13.29-6.5127,13.29-13.9062,0-7.5688-4.4888-13.1138-14.1699-13.1138h-8.5376v27.02h9.4175Z" fill="#fff"/>
    <path d="M70.4098,122.4719c8.2729,0,8.8013-4.0479,8.8013-10.1211v-11.6182l-12.146-20.2427c-3.5205-5.8091-7.3931-11.1777-13.2017-11.1777v-.6157h26.5796v.6157c-6.7769,0-8.0088,3.4326-4.1367,9.9458l10.9141,18.3945h.2637l3.6968-6.249c5.7207-9.5933,8.1851-14.2578,8.1851-17.3384,0-2.4644-1.4961-4.7529-7.481-4.7529v-.6157h23.147v.6157c-5.7207,0-9.2412,2.1123-12.0576,5.457-2.0244,2.3765-4.6646,6.5127-11.1777,17.1626l-3.6963,6.0728v14.3462c0,6.0732.5283,10.1211,8.8013,10.1211v.6162h-26.4917v-.6162Z" fill="#fff"/>
  </g>
  <g>
    <g>
      <path d="M126.8141,123.0881c9.8574,0,11.6172-3.0801,13.1138-32.6523l.4399-7.041c.5283-9.1533-2.0244-13.4663-10.6494-13.4663v-.6157h18.0425l19.8027,41.4536,16.9868-41.4536h16.2822v.6157c-7.833,0-8.6255,3.7847-8.3613,9.5054l1.584,34.7651c.3525,6.3374,1.8486,8.8892,8.8896,8.8892v.6162h-25.7881v-.6162c7.2173,0,8.4492-3.168,8.0977-8.7129l-2.0244-39.7822-19.3628,47.0869h-.5283l-21.8271-44.5342-.792,13.29c-1.4961,29.4844-1.0562,32.6523,8.4492,32.6523v.6162h-22.355v-.6162Z" fill="#fff"/>
      <path d="M201.8883,123.0881c10.2095,0,12.9375-10.0332,16.0181-17.3384l15.4023-36.7896h.6162l18.4829,42.2461c2.7275,6.1611,5.8086,11.8818,12.1455,11.8818v.6162h-26.8438v-.6162c6.0723,0,8.8008-3.3438,5.5449-10.9136l-3.0811-7.2168h-20.8589l-.8799,2.1123c-2.8164,7.3052-5.3687,16.0181,5.5444,16.0181v.6162h-22.0908v-.6162ZM239.733,104.0774l-10.1211-23.8516-9.9453,23.8516h20.0664Z" fill="#fff"/>
      <path d="M265.608,123.0881c7.5693,0,8.3613-2.1123,8.3613-7.9209v-37.3174c0-5.8091-.792-7.9214-8.3613-7.9214v-.6157h25.2598c15.1377,0,23.7637,4.8403,23.7637,14.082,0,10.9131-11.7939,13.3779-21.2998,13.7295v.2642c17.6904.4399,15.9307,6.8652,19.7148,18.1309,1.9365,5.7212,3.6963,7.6567,8.8018,7.6567v.5283h-15.0508c-.792-1.584-1.7598-3.8721-3.168-8.7134-3.1689-11.7056-3.2568-17.5142-13.9941-17.5142h-6.8652v17.6904c0,5.8086.792,7.9209,8.3613,7.9209v.6162h-25.5234v-.6162ZM289.9869,96.8606c10.3857,0,15.4902-5.8091,15.4902-13.6421s-5.1045-13.2017-15.666-13.2017h-7.041v26.8438h7.2168Z" fill="#fff"/>
      <path d="M325.0152,123.0881c7.5693,0,8.3613-2.1123,8.3613-7.9209v-37.3174c0-5.8091-.792-7.9214-8.3613-7.9214v-.6157h25.5234v.6157c-7.5693,0-8.3613,2.1123-8.3613,7.9214v37.3174c0,5.8086.792,7.9209,8.3613,7.9209v.6162h-25.5234v-.6162Z" fill="#fff"/>
      <path d="M355.9947,123.0881c7.5693,0,8.3613-2.1123,8.3613-7.9209v-37.3174c0-5.8091-.792-7.9214-8.3613-7.9214v-.6157h45.1504l1.0566,16.1943-.4404.0879c-2.2881-10.2095-6.4248-15.5781-22.1797-15.5781h-6.4248v26.2275h1.7607c11.6172,0,15.666-2.6406,17.0742-11.5298h.5283v23.6753h-.5283c-1.4082-8.8008-5.457-11.4414-17.0742-11.4414h-1.7607v26.0518h7.3936c16.5459,0,19.8906-7.3931,22.2666-16.7227l.5283.0884-1.6719,17.3384h-45.6787v-.6162Z" fill="#fff"/>
    </g>
    <rect x="350.5398" y="123.088" width="5.6594" height=".6154" fill="#fff"/>
    <polygon points="325.0592 123.7034 321.5013 123.7034 321.5013 123.1757 325.0146 123.088 325.0592 123.7034" fill="#fff"/>
    <rect x="264.5561" y="123.088" width="1.0512" height=".6154" fill="#fff"/>
  </g>
  <rect x="62.8444" y="54.8348" width="3.4277" height=".6163" fill="#fff"/>
</svg>