<?xml version="1.0" encoding="UTF-8"?>
<svg id="Layer_1" xmlns="http://www.w3.org/2000/svg" version="1.1" viewBox="0 0 382.9551 110.6432">
  <!-- Generator: Adobe Illustrator 29.7.1, SVG Export Plug-In . SVG Version: 2.1.1 Build 8)  -->
  <g>
    <path d="M1.1699,50.7334c4.8906,0,7.6646-.8027,7.6646-5.5479V8.249c0-4.7451-2.7739-5.5479-7.6646-5.5479v-1.2412h23.5049c11.9717,0,17.666,6.7158,17.666,14.5264,0,7.4463-5.2559,14.8188-18.7607,14.8188h-8.0298v14.3804c0,4.7451,3.3579,5.5479,9.1978,5.5479v1.2412H1.1699v-1.2412ZM21.9741,29.7832c10.147,0,13.3589-6.0586,13.3589-13.6504,0-9.9277-5.3291-13.5781-13.3589-13.5781h-6.4238v27.2285h6.4238Z" fill="#fff"/>
    <path d="M44.458,26.498c0-15.6211,10.877-25.9873,24.8926-25.9873,14.4536,0,25.2573,10.731,25.2573,26.3525s-10.8037,26.0605-24.8921,26.0605c-14.3809,0-25.2578-10.877-25.2578-26.4258ZM87.2354,28.542c0-14.7451-6.6431-27.0088-18.4688-27.0088-10.3657,0-16.9355,8.7598-16.9355,23.4321s6.6426,26.936,18.4688,26.936c10.4385,0,16.9355-8.7598,16.9355-23.3594Z" fill="#fff"/>
    <path d="M112.9316,27.374h-3.1387v17.8115c0,4.7451,3.3579,5.5479,9.1978,5.5479v1.2412h-23.5786v-1.2412c4.8911,0,7.665-.8027,7.665-5.5479V8.249c0-4.7451-2.7739-5.5479-7.665-5.5479v-1.2412h24.1626c12.2637,0,17.1548,5.8398,17.1548,12.4824,0,7.0078-5.4023,11.7529-14.3076,13.0669,13.1396,1.3872,12.0444,22.7754,20.3662,23.8706v1.0947h-10.585c-7.3726-18.9795-8.5405-24.6006-19.2715-24.6006ZM116.2168,26.2793c8.9058,0,13.2129-4.0146,13.2129-11.3877,0-7.7378-4.6719-12.3369-12.7749-12.3369h-6.8618v23.7246h6.4238Z" fill="#fff"/>
    <path d="M150.0156,50.7334c5.8398,0,9.1978-.8027,9.1978-5.5479V2.7012h-9.563c-3.7959,0-4.9639,2.1895-8.2485,13.7964h-1.022l1.314-16.4976h1.3872c1.3867,1.168,2.0439,1.46,3.4307,1.46h32.0459c1.46,0,1.9717-.2188,3.4307-1.46h1.4609l1.2402,16.4976h-1.0215c-3.2852-11.6069-4.3799-13.7964-8.249-13.7964h-9.4893v42.4844c0,4.7451,3.2842,5.5479,9.1973,5.5479v1.2412h-25.1113v-1.2412Z" fill="#fff"/>
    <path d="M202.9395,27.374h-3.1387v17.8115c0,4.7451,3.3574,5.5479,9.1973,5.5479v1.2412h-23.5781v-1.2412c4.8906,0,7.665-.8027,7.665-5.5479V8.249c0-4.7451-2.7744-5.5479-7.665-5.5479v-1.2412h24.1621c12.2637,0,17.1553,5.8398,17.1553,12.4824,0,7.0078-5.4023,11.7529-14.3076,13.0669,13.1396,1.3872,12.0449,22.7754,20.3662,23.8706v1.0947h-10.585c-7.373-18.9795-8.541-24.6006-19.2715-24.6006ZM206.2246,26.2793c8.9062,0,13.2129-4.0146,13.2129-11.3877,0-7.7378-4.6719-12.3369-12.7754-12.3369h-6.8613v23.7246h6.4238Z" fill="#fff"/>
    <path d="M231.2637,50.7334c2.4092,0,4.4531-.6567,6.0586-5.1826L253.2363,1.606c.876-.6567,1.8252-1.0952,3.2852-1.168l16.7168,45.1128c1.6055,4.5259,3.7227,5.1826,6.2041,5.1826v1.2412h-19.709v-1.2412c5.4014,0,7.7373-.6567,6.1318-5.1826l-4.4531-12.5557h-18.1768l-4.4521,12.5557c-1.6064,4.5259,1.0215,5.1826,6.9346,5.1826v1.2412h-14.4541v-1.2412ZM261.0469,31.9004l-8.4678-23.8706h-.4375l-8.4678,23.8706h17.373Z" fill="#fff"/>
    <path d="M279.4434,50.7334c4.8906,0,7.665-.8027,7.665-5.5479V8.249c0-4.7451-2.7744-5.5479-7.665-5.5479v-1.2412h22.0459v1.2412c-4.8916,0-7.665.8027-7.665,5.5479v36.9365c0,4.7451,2.7734,5.5479,7.665,5.5479v1.2412h-22.0459v-1.2412Z" fill="#fff"/>
    <path d="M311.8545,50.7334c5.8398,0,9.1982-.8027,9.1982-5.5479V2.7012h-9.5635c-3.7959,0-4.9639,2.1895-8.249,13.7964h-1.0215l1.3145-16.4976h1.3867c1.3867,1.168,2.0439,1.46,3.4307,1.46h32.0459c1.46,0,1.9707-.2188,3.4316-1.46h1.459l1.2412,16.4976h-1.0215c-3.2852-11.6069-4.3799-13.7964-8.249-13.7964h-9.4902v42.4844c0,4.7451,3.2852,5.5479,9.1982,5.5479v1.2412h-25.1113v-1.2412Z" fill="#fff"/>
    <path d="M348.1348,48.252l1.0225-12.4829h1.0947c.7305,11.9717,7.2266,16.1323,15.1836,16.1323,8.0293,0,12.2637-4.3066,12.2637-10.2925,0-15.7676-29.0527-10.0005-29.0527-26.7905,0-7.5918,5.8398-14.3076,17.4463-14.3076,5.0361,0,9.7812,1.3145,14.3076,3.5771l-.5117,11.3145h-1.0215c-.6572-10.5117-7.8105-13.8691-13.9424-13.8691-7.0078,0-10.877,4.4526-10.877,9.6357,0,14.2344,28.9072,8.7598,28.9072,26.4248,0,8.103-6.1318,15.3301-18.1768,15.3301-7.8105,0-14.0889-3.0664-16.6436-4.6719Z" fill="#fff"/>
  </g>
  <path d="M0,108.6284c4.8906,0,7.6646-.8027,7.6646-5.5479v-36.9365c0-4.7451-2.7739-5.5479-7.6646-5.5479v-1.2412h25.4033c10.8765,0,14.9644,6.0586,14.9644,12.0449,0,6.2046-4.4526,11.6797-12.7017,11.9717h-.2188c9.4165.2188,15.1104,5.2559,15.1104,12.7744,0,6.7158-4.5259,13.7236-16.4976,13.7236H0v-1.2412ZM22.7754,82.9331c6.4238,0,10.2197-3.2119,10.2197-10.9492,0-7.8838-4.0879-11.5342-11.6797-11.5342h-6.9351v22.4834h8.395ZM23.4321,108.7749c7.811,0,11.7524-4.3799,11.7524-12.2637,0-8.1758-4.3066-12.3369-11.3877-12.3369h-9.4165v24.6006h9.0518Z" fill="#fff"/>
  <path d="M60.5161,108.6284c5.4019,0,8.395-.8027,8.395-5.5479v-13.7964l-13.7969-24.3081c-2.1172-3.7231-3.5771-4.5264-6.2051-4.5264v-1.0947h18.6147v1.0947c-5.9858,0-6.2778,1.9712-4.5991,5.1831l11.8989,21.7534h.2192l11.4604-21.6074c2.1167-4.0146-.5112-5.3291-5.6206-5.3291v-1.0947h14.2344v1.0947c-2.5547,0-5.0371,1.0225-7.0811,4.9639l-12.3364,23.4326v14.2344c0,4.7451,2.9927,5.5479,8.4678,5.5479v1.2412h-23.6514v-1.2412Z" fill="#fff"/>
  <path d="M377.8438,93.9561c-2.6279,11.5337-6.9346,14.8188-13.2129,14.8188h-12.4824v-24.0166h8.833c5.0371,0,6.3506,3.3579,6.4961,8.3945h.9492v-17.957h-.9492c-.2188,5.9126-1.459,8.5405-6.4961,8.5405h-8.833v-23.2866h11.9717c8.4678,0,11.0957,5.8398,12.9941,13.9429h1.0947l-2.1904-15.0376h-38.251v1.2412c4.8916,0,7.665.8027,7.665,5.5479v36.9365c0,4.7451-2.7737,5.5961-7.665,5.5479-2.2242-.022-6.6713-.15-8.8954-.1756-4.8913-.0563-7.665-.8027-7.665-5.5479v-36.9365c0-4.7451,2.7734-5.5479,7.665-5.5479v-1.2412h-22.0459v1.2412c4.8906,0,7.665.8027,7.665,5.5479v36.9365c0,4.7451-2.7744,5.5479-7.665,5.5479,0,0-5.9705.2582-7.957.1465-8.3807-.4714-7.2266-22.4834-20.3662-23.8706,8.9053-1.314,14.3076-6.0591,14.3076-13.0669,0-6.6426-4.8906-12.4824-17.1543-12.4824h-24.1631v1.2412c4.8916,0,7.665.8027,7.665,5.5479v36.9365c0,4.7451-2.7734,5.5479-7.665,5.5479h-7.7393c-2.4814,0-4.5986-.6572-6.2051-5.1826l-16.7158-45.1128c-1.46.0728-2.4092.5112-3.2852,1.168l-15.9131,43.9448c-1.6064,4.5254-3.6504,5.1826-6.0596,5.1826l-7.7215.1465c-4.0879-.1465-6.1318-1.5332-6.4238-6.0596l-3.0654-36.4258c-.292-3.5039.7295-5.9126,5.9121-5.9126v-1.022h-13.5039l-15.1108,42.6309-16.7163-42.6309h-12.4102v1.022c4.6719.292,6.3511,2.4819,6.0591,6.3511l-2.7007,35.6963c-.3652,4.0879-1.6792,6.2773-6.9351,6.3506v1.0947h16.3516v-1.0947c-6.5698,0-8.2485-1.0947-7.9565-5.6211l2.6279-38.4697,17.957,46.1348,2.7744-1.0957,16.5703-47.2295,3.0659,40.4414c.292,3.9414-2.0439,5.5479-7.0078,5.9131v1.0215h42.6878v-1.2412c-5.9131,0-8.541-.6572-6.9355-5.1826l4.4531-12.5557h18.1768l4.4531,12.5557c1.6055,4.5254-.7305,5.1826-6.1318,5.1826v1.2412h51.0273v-1.2412c-5.8398,0-9.1982-.8027-9.1982-5.5479v-17.8115h3.1387c10.7314,0,11.8994,5.6211,19.2715,24.6006l88.4647.1756,2.1895-15.9136h-1.0947ZM207.9855,89.6198l8.4678-23.8706h.4375l8.4678,23.8706h-17.373ZM272.298,83.9987h-6.4238v-23.7246h6.8623c8.1025,0,12.7744,4.5991,12.7744,12.3369,0,7.373-4.3076,11.3877-13.2129,11.3877Z" fill="#fff"/>
</svg>